<svg width="18" height="18" viewBox="0 0 18 18" fill="none" xmlns="http://www.w3.org/2000/svg">
<path d="M9 12.9563L5.8875 14.8313C5.75 14.9188 5.60625 14.9563 5.45625 14.9438C5.30625 14.9313 5.175 14.8813 5.0625 14.7938C4.95 14.7063 4.8625 14.597 4.8 14.466C4.7375 14.335 4.725 14.188 4.7625 14.025L5.5875 10.4813L2.83125 8.1C2.70625 7.9875 2.62825 7.85925 2.59725 7.71525C2.56625 7.57125 2.5755 7.43075 2.625 7.29375C2.6745 7.15675 2.7495 7.04425 2.85 6.95625C2.9505 6.86825 3.088 6.812 3.2625 6.7875L6.9 6.46875L8.30625 3.13125C8.36875 2.98125 8.46575 2.86875 8.59725 2.79375C8.72875 2.71875 8.863 2.68125 9 2.68125C9.137 2.68125 9.27125 2.71875 9.40275 2.79375C9.53425 2.86875 9.63125 2.98125 9.69375 3.13125L11.1 6.46875L14.7375 6.7875C14.9125 6.8125 15.05 6.86875 15.15 6.95625C15.25 7.04375 15.325 7.15625 15.375 7.29375C15.425 7.43125 15.4345 7.572 15.4035 7.716C15.3725 7.86 15.2943 7.988 15.1688 8.1L12.4125 10.4813L13.2375 14.025C13.275 14.1875 13.2625 14.3345 13.2 14.466C13.1375 14.5975 13.05 14.7068 12.9375 14.7938C12.825 14.8808 12.6938 14.9308 12.5438 14.9438C12.3938 14.9567 12.25 14.9193 12.1125 14.8313L9 12.9563Z" fill="#304E00"/>
</svg>
