<svg width="30" height="30" viewBox="0 0 30 30" fill="none" xmlns="http://www.w3.org/2000/svg">
<path fill-rule="evenodd" clip-rule="evenodd" d="M20 27.1875C21.9062 27.1875 23.7344 26.4302 25.0823 25.0823C26.4302 23.7344 27.1875 21.9062 27.1875 20V10C27.1875 8.09376 26.4302 6.26559 25.0823 4.91767C23.7344 3.56975 21.9062 2.8125 20 2.8125H10C8.09376 2.8125 6.26559 3.56975 4.91767 4.91767C3.56975 6.26559 2.8125 8.09376 2.8125 10V20C2.8125 21.9062 3.56975 23.7344 4.91767 25.0823C6.26559 26.4302 8.09376 27.1875 10 27.1875H20ZM17.1388 7.20375C17.068 6.99305 16.9247 6.81434 16.7344 6.69949C16.5442 6.58464 16.3193 6.54113 16.0999 6.57672C15.8805 6.61231 15.6809 6.72468 15.5367 6.89379C15.3925 7.0629 15.313 7.27775 15.3125 7.5V18.75C15.3125 19.3063 15.1475 19.85 14.8385 20.3125C14.5295 20.7751 14.0902 21.1355 13.5763 21.3484C13.0624 21.5613 12.4969 21.617 11.9513 21.5085C11.4057 21.3999 10.9046 21.1321 10.5113 20.7387C10.1179 20.3454 9.85006 19.8443 9.74154 19.2987C9.63302 18.7531 9.68872 18.1876 9.90159 17.6737C10.1145 17.1598 10.4749 16.7205 10.9375 16.4115C11.4 16.1025 11.9437 15.9375 12.5 15.9375C12.7486 15.9375 12.9871 15.8387 13.1629 15.6629C13.3387 15.4871 13.4375 15.2486 13.4375 15C13.4375 14.7514 13.3387 14.5129 13.1629 14.3371C12.9871 14.1613 12.7486 14.0625 12.5 14.0625C11.5729 14.0625 10.6666 14.3374 9.89576 14.8525C9.12491 15.3676 8.5241 16.0996 8.16931 16.9562C7.81453 17.8127 7.7217 18.7552 7.90257 19.6645C8.08344 20.5738 8.52988 21.409 9.18544 22.0646C9.841 22.7201 10.6762 23.1666 11.5855 23.3474C12.4948 23.5283 13.4373 23.4355 14.2938 23.0807C15.1504 22.7259 15.8824 22.1251 16.3975 21.3542C16.9126 20.5834 17.1875 19.6771 17.1875 18.75V10.5725C18.1462 11.4625 19.4963 12.1875 21.25 12.1875C21.4986 12.1875 21.7371 12.0887 21.9129 11.9129C22.0887 11.7371 22.1875 11.4986 22.1875 11.25C22.1875 11.0014 22.0887 10.7629 21.9129 10.5871C21.7371 10.4113 21.4986 10.3125 21.25 10.3125C20.035 10.3125 19.1112 9.8125 18.4263 9.16375C17.7263 8.49875 17.3038 7.6975 17.1388 7.20375Z" fill="#304E00" fill-opacity="0.97"/>
</svg>
